<?xml version="1.0" encoding="UTF-8"?>
<svg width="158px" height="197px" viewBox="0 0 158 197" version="1.1" xmlns="http://www.w3.org/2000/svg" xmlns:xlink="http://www.w3.org/1999/xlink">
    <!-- Generator: Sketch 47 (45396) - http://www.bohemiancoding.com/sketch -->
    <title>arrow</title>
    <desc>Created with Sketch.</desc>
    <defs>
        <path d="M192.950779,1.50650141 C181.30941,28.5367326 162.48507,52.0951909 139.202334,69.7020387 C115.671909,87.5568703 86.9400212,100.70001 57.2173789,103.427832 C45.0806334,104.419767 32.6961991,103.427832 21.5502082,98.9641238 C32.9438878,96.7322698 44.0898786,94.5004159 55.4835581,92.2685619 C57.960445,91.7725944 58.4558224,88.3008216 58.4558224,86.3169514 C58.4558224,85.0770326 57.960445,79.8693733 55.4835581,80.3653409 C39.3837936,83.5891299 23.0363403,86.812919 6.93657577,90.036708 C6.68888709,90.036708 6.19350972,90.2846918 5.94582103,90.5326755 C5.45044366,90.036708 4.95506629,89.5407404 4.45968892,89.2927567 C0.248981262,85.8209839 -1.48483954,97.2282374 1.48742469,99.7080751 C13.6241703,110.123394 24.2747838,122.026615 32.6961991,135.417738 C33.9346425,137.401608 35.6684633,137.649592 36.9069067,135.417738 C38.1453502,133.185884 38.3930388,129.218144 36.9069067,126.98629 C33.9346425,122.274598 30.7146896,118.058874 27.4947367,113.595166 C50.0344071,119.794761 75.7940304,114.339118 96.8475686,106.155653 C125.084079,95.2443672 150.348325,77.1415519 169.915731,54.0790611 C181.061722,40.9359212 190.226203,26.3048786 197.161486,10.681901 C198.152241,8.20206326 198.39993,4.73029045 197.161486,2.25045273 C196.170732,-0.477368761 193.941533,-0.725352533 192.950779,1.50650141 Z" id="path-1"/>
        <filter x="-5.6%" y="-8.8%" width="108.1%" height="111.7%" filterUnits="objectBoundingBox" id="filter-2">
            <feOffset dx="-3" dy="-4" in="SourceAlpha" result="shadowOffsetOuter1"/>
            <feGaussianBlur stdDeviation="2" in="shadowOffsetOuter1" result="shadowBlurOuter1"/>
            <feColorMatrix values="0 0 0 0 0   0 0 0 0 0   0 0 0 0 0  0 0 0 0.5 0" type="matrix" in="shadowBlurOuter1"/>
        </filter>
    </defs>
    <g id="Desktop" stroke="none" stroke-width="1" fill="none" fill-rule="evenodd">
        <g id="Artboard-Copy" transform="translate(-220.000000, -1995.000000)" fill-rule="nonzero">
            <g id="arrow" transform="translate(287.895063, 2101.736964) scale(-1, 1) rotate(-23.000000) translate(-287.895063, -2101.736964) translate(188.895063, 2033.236964)">
                <g id="Shape">
                    <use fill="black" fill-opacity="1" filter="url(#filter-2)" xlink:href="#path-1"/>
                    <use fill="#F8E71C" fill-rule="evenodd" xlink:href="#path-1"/>
                </g>
            </g>
        </g>
    </g>
</svg>