<?xml version="1.0" encoding="UTF-8"?>
<svg width="217px" height="183px" viewBox="0 0 217 183" version="1.1" xmlns="http://www.w3.org/2000/svg" xmlns:xlink="http://www.w3.org/1999/xlink">
    <!-- Generator: Sketch 47 (45396) - http://www.bohemiancoding.com/sketch -->
    <title>noun_477874_cc</title>
    <desc>Created with Sketch.</desc>
    <defs>
        <path d="M199.975659,89.6712271 C194.921623,84.1189458 190.790367,80.5173008 187.569747,78.866292 C186.522515,78.2731519 185.505637,77.8389977 184.522149,77.5730018 C184.388589,75.7905239 184.194319,73.9713568 183.930235,72.1216155 C183.471881,69.0152731 182.485357,65.1506897 180.976735,60.5248077 C175.52809,43.2717662 168.443335,30.3174624 159.716397,21.6557812 C150.002935,11.8781405 140.717473,5.43309151 131.856975,2.32369169 L131.75984,2.32369169 C118.83183,-2.30219025 107.910257,-0.0213522264 98.9829788,9.16620575 C98.2605402,9.75934594 97.5714915,10.5879077 96.9127974,11.6457763 C89.8280414,11.3828379 84.2124465,13.4955176 80.08119,17.9899303 C78.4390079,19.4483214 76.9303859,21.9217771 75.5522886,25.4255846 L75.6524586,25.327747 C75.1273246,26.5843481 74.7661053,27.8745809 74.5688006,29.1984453 C70.5680687,30.1859931 67.0560453,32.2008353 64.0388013,35.2490867 C63.1828025,36.037902 62.4300093,36.9673587 61.7713152,38.0191125 C59.3429498,35.9706386 57.1149246,33.8579589 55.0781331,31.6780159 L54.984034,31.5801783 C51.6328898,28.2751034 48.6824259,24.7407217 46.1235359,20.9709184 C34.3793539,3.84934608 23.1572705,-1.50420268 12.460321,4.91027207 C1.43250684,10.39529 -2.27378579,19.6164797 1.33537223,32.5677261 C4.22209155,43.4093503 10.6876143,53.5233076 20.7289051,62.9095982 C30.0447217,71.6996911 40.7447066,79.5970163 52.8167179,86.6046312 L52.9138525,86.6046312 C60.5267779,91.0317806 66.8890951,95.2632549 72.0099106,99.2959967 C57.8373633,96.5840619 45.0064878,97.0793645 33.5233551,100.778847 C19.4145523,105.27326 13.5409436,114.757388 15.9025289,129.234289 L15.9025289,129.139509 C17.0863571,137.067408 20.7896142,142.323119 27.0244423,144.903585 C32.1422223,147.410672 39.3575029,147.575773 48.6793904,145.39583 C62.4603638,142.087698 75.9772525,144.00776 89.2330919,151.146844 C102.358407,158.218665 115.480686,161.02538 128.609036,159.573103 C133.726816,166.644924 140.781218,170.977293 149.769205,172.564096 C149.835985,172.564096 149.902765,172.597728 149.96651,172.661934 C161.449642,175.037552 175.458275,164.89302 191.998479,142.225282 L191.998479,142.121329 C208.796696,118.728981 211.489146,101.280265 200.066722,89.7782369 L199.975659,89.6712271 Z M181.993645,135.284096 C169.33378,152.67454 159.151372,161.242724 151.44945,160.99477 C146.997296,160.20193 143.265967,158.38054 140.252435,155.536723 C149.156742,150.635808 156.2287,144.121662 161.468309,135.978979 C162.316338,134.592274 162.579833,133.104551 162.255765,131.512748 C161.862037,129.8536 161.010979,128.601586 159.699562,127.744461 C158.327572,126.813869 156.852607,126.550609 155.280724,126.945499 C153.645239,127.276104 152.400454,128.13629 151.549396,129.529117 C146.379446,137.472824 139.043993,143.460451 129.549095,147.495059 C117.89475,149.34706 106.240406,147.097108 94.5860611,140.742142 L94.4861148,140.742142 C78.5764808,132.140286 62.3700365,129.8536 45.8728393,133.897391 C39.7821723,135.284096 35.0362373,135.354503 31.6320056,134.096366 C29.3392981,132.902514 27.9642792,130.686235 27.5069492,127.444468 L27.4100316,127.444468 C26.228848,119.63239 29.4059289,114.538622 36.9382457,112.153979 C46.8238435,109.046903 57.8542808,108.713236 70.0325863,111.162163 C78.4159609,112.81825 83.7827745,112.916208 86.1390843,111.462157 C90.2641407,109.613217 91.6361309,106.533691 90.2641407,102.232763 C89.8704129,100.573615 88.4620786,98.5899837 86.039138,96.2757476 L86.039138,96.1808516 C79.7546357,89.9544544 70.586834,83.3392899 58.5387616,76.3261748 C47.2781449,69.839579 37.3228875,62.4927976 28.6820754,54.2888916 L28.6820754,54.1878734 C20.4985934,46.5104868 15.1620666,38.2361742 12.6755237,29.3710579 C10.9067771,22.8875233 12.6119215,18.2529287 17.7848998,15.4764575 C23.0881112,13.4224199 29.2423804,17.4937613 36.2507363,27.6843593 L36.2507363,27.7823164 C39.2582113,32.0801836 42.6654716,36.1545861 46.4634311,39.9902183 L46.3665135,39.7943041 C50.9489,44.7564427 56.3157135,49.2930803 62.4730115,53.3919721 C62.5366136,53.4562564 62.63656,53.5236019 62.766793,53.5878862 C67.6126743,56.8939379 73.7336281,60.7693651 81.1326831,65.2019232 C82.5046733,65.9978246 83.9766097,66.1937387 85.5515212,65.7957881 C87.1234039,65.4008986 88.3318456,64.5070402 89.1859321,63.1203352 C89.9703592,61.6601623 90.1672231,60.1357052 89.7734952,58.553086 C89.3797674,56.9612834 88.495394,55.7735537 87.1203752,54.9776524 C80.8358729,51.2063046 75.4993461,47.863519 71.1138236,44.9523569 C71.4378919,44.4227764 71.801333,43.9942141 72.1890035,43.663609 C74.2848471,41.4779415 76.8713363,40.3544962 79.9514996,40.2871507 C80.6692957,40.351435 81.3931493,40.4187805 82.1109454,40.4830648 C86.6933319,41.0769297 93.9621539,44.7197088 103.911354,51.3991576 C105.286373,52.3266888 106.758309,52.6236212 108.333221,52.293016 C109.905103,51.9685332 111.14686,51.1022252 112.064549,49.712459 C112.982238,48.3226929 113.272991,46.8380308 112.945894,45.2462281 C112.621826,43.6574867 111.767739,42.3993503 110.39272,41.4748803 C100.30723,34.6576794 92.3872425,30.5557264 86.6236724,29.1659603 C87.150662,27.9078239 87.6715942,26.9802928 88.1985838,26.386428 C90.9455928,23.805871 94.876814,22.9793581 99.9861901,23.9007669 L100.279972,23.9007669 L100.376889,24.0017851 C104.829043,25.057885 111.704137,29.0618809 121.002172,36.0107116 C122.313588,36.941304 123.752209,37.3025207 125.324092,37.1035454 C126.899003,36.8402857 128.171047,36.0413232 129.155367,34.7250249 C130.136658,33.3321976 130.530386,31.8444743 130.33655,30.2557328 C130.073056,28.5996459 129.288629,27.3078368 127.980241,26.3833668 C120.908283,21.090623 114.947849,17.2825413 110.104996,14.9683051 C115.084139,11.5918468 120.877996,11.0959391 127.489595,13.4805819 C134.952252,16.2601142 142.778351,21.7885672 150.961833,30.0598187 C158.427519,37.7341441 164.545444,49.1216554 169.324694,64.2039854 C170.56948,68.0457399 171.390251,71.284446 171.783979,73.9323485 C172.30794,77.4404366 172.601721,80.8505677 172.665324,84.1566193 C172.665324,84.2913103 172.665324,84.4229402 172.665324,84.55457 L172.665324,84.6525271 C172.665324,90.4136282 172.044445,95.8716746 170.799659,101.03585 C170.736057,101.100134 170.70577,101.16748 170.70577,101.231764 C170.378673,102.355209 170.081863,103.481716 169.818368,104.608222 C169.427669,106.132679 169.65482,107.620403 170.508906,109.077514 C171.296362,110.464219 172.504804,111.358078 174.140289,111.756028 C175.648569,112.150918 177.120506,111.955004 178.562155,111.159102 C179.934146,110.301978 180.818519,109.077514 181.215275,107.485712 C181.475742,106.496957 181.772552,105.468408 182.09662,104.412308 C182.09662,104.344963 182.09662,104.277617 182.09662,104.216394 C183.144542,100.11138 183.865367,95.8441242 184.256066,91.4054437 C186.088415,92.9299009 188.284205,95.0757733 190.840407,97.8614279 C197.052221,105.86942 194.10532,118.343642 181.993645,135.284096 Z" id="path-1"></path>
        <filter x="-2.4%" y="-2.9%" width="109.7%" height="111.6%" filterUnits="objectBoundingBox" id="filter-2">
            <feOffset dx="5" dy="5" in="SourceAlpha" result="shadowOffsetOuter1"></feOffset>
            <feGaussianBlur stdDeviation="2.5" in="shadowOffsetOuter1" result="shadowBlurOuter1"></feGaussianBlur>
            <feColorMatrix values="0 0 0 0 0   0 0 0 0 0   0 0 0 0 0  0 0 0 0.5 0" type="matrix" in="shadowBlurOuter1"></feColorMatrix>
        </filter>
    </defs>
    <g id="Mobile-App" stroke="none" stroke-width="1" fill="none" fill-rule="evenodd">
        <g id="Mobile---Home-Copy" transform="translate(-136.000000, -822.000000)" fill-rule="nonzero">
            <g id="noun_477874_cc" transform="translate(136.000000, 822.000000)">
                <g id="Shape">
                    <use fill="black" fill-opacity="1" filter="url(#filter-2)" xlink:href="#path-1"></use>
                    <use fill="#F7E13C" fill-rule="evenodd" xlink:href="#path-1"></use>
                </g>
            </g>
        </g>
    </g>
</svg>